<mxGraphModel dx="1252" dy="898" grid="1" gridSize="10" guides="1" tooltips="1" connect="1" arrows="1" fold="1" page="1" pageScale="1" pageWidth="850" pageHeight="1100" math="0" shadow="0"><root><mxCell id="0"/><mxCell id="1" parent="0"/><mxCell id="9dJ39BR00w0dIH7LPHV4-7" style="edgeStyle=orthogonalEdgeStyle;rounded=0;orthogonalLoop=1;jettySize=auto;html=1;exitX=0;exitY=0;exitDx=160;exitDy=55;exitPerimeter=0;entryX=0;entryY=0;entryDx=0;entryDy=37.5;entryPerimeter=0;dashed=1;" parent="1" source="9dJ39BR00w0dIH7LPHV4-1" target="9dJ39BR00w0dIH7LPHV4-6" edge="1"><mxGeometry relative="1" as="geometry"/></mxCell><mxCell id="9dJ39BR00w0dIH7LPHV4-11" style="edgeStyle=orthogonalEdgeStyle;rounded=0;orthogonalLoop=1;jettySize=auto;html=1;exitX=0.75;exitY=1;exitDx=0;exitDy=0;exitPerimeter=0;entryX=0;entryY=0;entryDx=120;entryDy=20;entryPerimeter=0;dashed=1;" parent="1" source="9dJ39BR00w0dIH7LPHV4-1" target="9dJ39BR00w0dIH7LPHV4-2" edge="1"><mxGeometry relative="1" as="geometry"/></mxCell><mxCell id="9dJ39BR00w0dIH7LPHV4-16" style="edgeStyle=orthogonalEdgeStyle;rounded=0;orthogonalLoop=1;jettySize=auto;html=1;exitX=0.25;exitY=1;exitDx=0;exitDy=0;exitPerimeter=0;entryX=0;entryY=0;entryDx=0;entryDy=55;entryPerimeter=0;dashed=1;" parent="1" source="9dJ39BR00w0dIH7LPHV4-1" target="9dJ39BR00w0dIH7LPHV4-3" edge="1"><mxGeometry relative="1" as="geometry"><Array as="points"><mxPoint x="140" y="180"/><mxPoint x="140" y="425"/></Array></mxGeometry></mxCell><mxCell id="9dJ39BR00w0dIH7LPHV4-1" value="Interface " style="shape=folder;tabWidth=80;tabHeight=20;tabPosition=left;strokeWidth=2;html=1;whiteSpace=wrap;align=center;" parent="1" vertex="1"><mxGeometry x="160" y="90" width="160" height="90" as="geometry"/></mxCell><mxCell id="9dJ39BR00w0dIH7LPHV4-8" style="edgeStyle=orthogonalEdgeStyle;rounded=0;orthogonalLoop=1;jettySize=auto;html=1;exitX=0;exitY=0;exitDx=160;exitDy=55;exitPerimeter=0;dashed=1;" parent="1" source="9dJ39BR00w0dIH7LPHV4-2" target="9dJ39BR00w0dIH7LPHV4-6" edge="1"><mxGeometry relative="1" as="geometry"/></mxCell><mxCell id="9dJ39BR00w0dIH7LPHV4-12" style="edgeStyle=orthogonalEdgeStyle;rounded=0;orthogonalLoop=1;jettySize=auto;html=1;exitX=0.75;exitY=1;exitDx=0;exitDy=0;exitPerimeter=0;dashed=1;entryX=0;entryY=0;entryDx=120;entryDy=20;entryPerimeter=0;" parent="1" source="9dJ39BR00w0dIH7LPHV4-2" target="9dJ39BR00w0dIH7LPHV4-3" edge="1"><mxGeometry relative="1" as="geometry"><mxPoint x="280" y="380" as="targetPoint"/></mxGeometry></mxCell><mxCell id="9dJ39BR00w0dIH7LPHV4-2" value="Proceess" style="shape=folder;tabWidth=80;tabHeight=20;tabPosition=left;strokeWidth=2;html=1;whiteSpace=wrap;align=center;" parent="1" vertex="1"><mxGeometry x="160" y="220" width="160" height="90" as="geometry"/></mxCell><mxCell id="9dJ39BR00w0dIH7LPHV4-9" style="edgeStyle=orthogonalEdgeStyle;rounded=0;orthogonalLoop=1;jettySize=auto;html=1;exitX=0;exitY=0;exitDx=160;exitDy=72.5;exitPerimeter=0;entryX=0;entryY=0;entryDx=0;entryDy=55;entryPerimeter=0;dashed=1;" parent="1" source="9dJ39BR00w0dIH7LPHV4-3" target="9dJ39BR00w0dIH7LPHV4-6" edge="1"><mxGeometry relative="1" as="geometry"/></mxCell><mxCell id="9dJ39BR00w0dIH7LPHV4-13" style="edgeStyle=orthogonalEdgeStyle;rounded=0;orthogonalLoop=1;jettySize=auto;html=1;exitX=0.75;exitY=1;exitDx=0;exitDy=0;exitPerimeter=0;entryX=0;entryY=0;entryDx=120;entryDy=20;entryPerimeter=0;dashed=1;" parent="1" source="9dJ39BR00w0dIH7LPHV4-3" target="9dJ39BR00w0dIH7LPHV4-4" edge="1"><mxGeometry relative="1" as="geometry"/></mxCell><mxCell id="9dJ39BR00w0dIH7LPHV4-3" value="Domain " style="shape=folder;tabWidth=80;tabHeight=20;tabPosition=left;strokeWidth=2;html=1;whiteSpace=wrap;align=center;" parent="1" vertex="1"><mxGeometry x="160" y="370" width="160" height="90" as="geometry"/></mxCell><mxCell id="9dJ39BR00w0dIH7LPHV4-10" style="edgeStyle=orthogonalEdgeStyle;rounded=0;orthogonalLoop=1;jettySize=auto;html=1;exitX=0;exitY=0;exitDx=160;exitDy=55;exitPerimeter=0;entryX=0;entryY=0;entryDx=0;entryDy=72.5;entryPerimeter=0;dashed=1;" parent="1" source="9dJ39BR00w0dIH7LPHV4-4" target="9dJ39BR00w0dIH7LPHV4-6" edge="1"><mxGeometry relative="1" as="geometry"/></mxCell><mxCell id="9dJ39BR00w0dIH7LPHV4-15" style="edgeStyle=orthogonalEdgeStyle;rounded=0;orthogonalLoop=1;jettySize=auto;html=1;exitX=0.75;exitY=1;exitDx=0;exitDy=0;exitPerimeter=0;entryX=0.825;entryY=0.233;entryDx=0;entryDy=0;entryPerimeter=0;dashed=1;" parent="1" source="9dJ39BR00w0dIH7LPHV4-4" target="9dJ39BR00w0dIH7LPHV4-5" edge="1"><mxGeometry relative="1" as="geometry"/></mxCell><mxCell id="9dJ39BR00w0dIH7LPHV4-4" value="Persistence" style="shape=folder;tabWidth=80;tabHeight=20;tabPosition=left;strokeWidth=2;html=1;whiteSpace=wrap;align=center;" parent="1" vertex="1"><mxGeometry x="160" y="490" width="160" height="90" as="geometry"/></mxCell><mxCell id="9dJ39BR00w0dIH7LPHV4-5" value="Data Source" style="shape=folder;tabWidth=80;tabHeight=20;tabPosition=left;strokeWidth=2;html=1;whiteSpace=wrap;align=center;" parent="1" vertex="1"><mxGeometry x="160" y="610" width="160" height="90" as="geometry"/></mxCell><mxCell id="9dJ39BR00w0dIH7LPHV4-6" value="System" style="shape=folder;tabWidth=80;tabHeight=20;tabPosition=left;strokeWidth=2;html=1;whiteSpace=wrap;align=center;" parent="1" vertex="1"><mxGeometry x="480" y="280" width="160" height="90" as="geometry"/></mxCell></root></mxGraphModel>